<svg width="33" height="37" viewBox="0 0 33 37" fill="none" xmlns="http://www.w3.org/2000/svg">
<g clip-path="url(#clip0_3914_4977)">
<path d="M26.4885 27.102L16.8295 32.5458C16.6267 32.6583 16.3779 32.6583 16.1751 32.5458L6.44239 27.057C6.23963 26.9445 5.99078 26.9445 5.78801 27.057L3.2258 28.5012C2.78801 28.7486 2.78801 29.365 3.2258 29.6125L14.5714 36.0056L16.1797 36.9144C16.3825 37.0269 16.6313 37.0269 16.8341 36.9144L18.4424 36.0056L29.7143 29.653C30.1521 29.4055 30.1521 28.7891 29.7143 28.5417L27.1521 27.0975C26.9493 26.985 26.7005 26.985 26.4977 27.0975L26.4885 27.102Z" fill="#3C3936"/>
<path d="M33 9.5689V24.9241C33 25.419 32.4516 25.7249 32.0139 25.4775L29.4516 24.0333C29.2489 23.9208 29.1245 23.7093 29.1245 23.4799V11.7554C29.1245 11.526 29 11.3145 28.7973 11.202L25.6175 9.41143L23.5484 8.24618C23.3457 8.13371 23.0968 8.13371 22.8894 8.24618L21.742 8.89404L18.4378 10.7566L16.8295 11.6654C16.6268 11.7779 16.3779 11.7779 16.1751 11.6654L14.5669 10.7566L11.1152 8.80856L10.1152 8.24618C9.91247 8.13371 9.66363 8.13371 9.45625 8.24618L7.23966 9.49691L4.2074 11.2065C4.00464 11.319 3.88021 11.5305 3.88021 11.7599V23.4034C3.88021 23.6329 3.75579 23.8443 3.55303 23.9568L0.990814 25.401C0.553026 25.6484 0.00463867 25.338 0.00463867 24.8476V9.5689C0.00463867 9.33945 0.129063 9.12799 0.331828 9.01552L1.94012 8.10672L5.00464 6.37909L5.90786 5.8707L7.84335 4.77743L8.87561 4.19256L9.77883 3.68417L14.5622 0.989254L16.1705 0.0804505C16.3733 -0.0320252 16.6222 -0.0320252 16.8249 0.0804505L18.4332 0.989254L23.2166 3.68417L24.0461 4.15207L25.1521 4.77743L27.0876 5.8707L27.9171 6.3386L31.0553 8.10672L32.6636 9.01552C32.8664 9.12799 32.9908 9.33945 32.9908 9.5689H33Z" fill="#3C3936"/>
</g>
<defs>
<clipPath id="clip0_3914_4977">
<rect width="33" height="37" fill="white"/>
</clipPath>
</defs>
</svg>
